<?xml version="1.0" encoding="UTF-8" standalone="no"?>
<svg
   xmlns:dc="http://purl.org/dc/elements/1.1/"
   xmlns:cc="http://creativecommons.org/ns#"
   xmlns:rdf="http://www.w3.org/1999/02/22-rdf-syntax-ns#"
   xmlns:svg="http://www.w3.org/2000/svg"
   xmlns="http://www.w3.org/2000/svg"
   xmlns:xlink="http://www.w3.org/1999/xlink"
   xmlns:sodipodi="http://sodipodi.sourceforge.net/DTD/sodipodi-0.dtd"
   xmlns:inkscape="http://www.inkscape.org/namespaces/inkscape"
   width="496pt"
   height="621.702pt"
   viewBox="0 0 496 621.702"
   version="1.2"
   id="svg37"
   sodipodi:docname="swoose_final_square.svg"
   inkscape:version="0.92.4 (5da689c313, 2019-01-14)"
   inkscape:export-filename="C:\Users\brunk\Desktop\swoose_square.png"
   inkscape:export-xdpi="500.01608"
   inkscape:export-ydpi="500.01608">
  <metadata
     id="metadata43">
    <rdf:RDF>
      <cc:Work
         rdf:about="">
        <dc:format>image/svg+xml</dc:format>
        <dc:type
           rdf:resource="http://purl.org/dc/dcmitype/StillImage" />
        <dc:title></dc:title>
      </cc:Work>
    </rdf:RDF>
  </metadata>
  <defs
     id="defs41">
    <polygon
       points="42.055,134.556 99.274,106.98 141.327,100.087 150.289,145.586 106.168,239.343 79.972,295.183      80.661,350.333 150.289,285.531 206.818,266.918 182,246.926 206.818,181.434 212.333,95.261 164.076,24.944 106.858,27.012      72.389,51.14 56.532,85.61 31.714,124.905    "
       id="SVGID_1_" />
    <rect
       height="869.62"
       width="615.485"
       y="-185.714"
       x="-98.209"
       id="SVGID_3_" />
    <rect
       height="869.62"
       width="615.485"
       y="-185.714"
       x="-98.209"
       id="SVGID_5_" />
    <path
       d="M71,341l128-97l197,69l61,92l35,115l-216-20c0,0,8,141,8,138s0-3,0-3l-141-43l-16-117l-62-85L71,341z"
       id="SVGID_7_" />
    <rect
       height="840.96"
       width="595.2"
       y="-168.069"
       x="-88"
       id="SVGID_9_" />
    <rect
       height="840.96"
       width="595.2"
       y="-168.069"
       x="-88"
       id="SVGID_11_" />
  </defs>
  <sodipodi:namedview
     pagecolor="#ffffff"
     bordercolor="#666666"
     borderopacity="1"
     objecttolerance="10"
     gridtolerance="10"
     guidetolerance="10"
     inkscape:pageopacity="0"
     inkscape:pageshadow="2"
     inkscape:window-width="1920"
     inkscape:window-height="1017"
     id="namedview39"
     showgrid="false"
     inkscape:zoom="0.40262986"
     inkscape:cx="-893.54364"
     inkscape:cy="639.84114"
     inkscape:window-x="3832"
     inkscape:window-y="253"
     inkscape:window-maximized="1"
     inkscape:current-layer="svg37" />
  <flowRoot
     xml:space="preserve"
     id="flowRoot833"
     style="fill:black;fill-opacity:1;stroke:none;font-family:Roboto;font-style:normal;font-weight:500;font-size:40px;line-height:1.25;letter-spacing:0px;word-spacing:0px;-inkscape-font-specification:'Roboto Medium';font-stretch:normal;font-variant:normal"><flowRegion
       id="flowRegion835"><rect
         id="rect837"
         width="673.07477"
         height="72.026451"
         x="824.57867"
         y="96.253166" /></flowRegion><flowPara
       id="flowPara839" /></flowRoot>  <rect
     style="opacity:1;fill:#ffffff;fill-opacity:1;stroke:none;stroke-width:7.10898733;stroke-miterlimit:4;stroke-dasharray:none;stroke-opacity:1"
     id="rect845"
     width="520.97522"
     height="489.36322"
     x="-735.32574"
     y="242.01094" />
  <g
     id="g1327"
     transform="translate(0.42135927,-3.2929412)">
    <text
       id="text852"
       y="440.80414"
       x="-706.19128"
       style="font-style:normal;font-variant:normal;font-weight:normal;font-stretch:normal;font-size:214.87826538px;line-height:1.25;font-family:Roboto;-inkscape-font-specification:Roboto;letter-spacing:0px;word-spacing:0px;fill:#000000;fill-opacity:1;stroke:none;stroke-width:1.61158717"
       xml:space="preserve"><tspan
         style="font-style:normal;font-variant:normal;font-weight:500;font-stretch:normal;font-size:214.87826538px;font-family:Roboto;-inkscape-font-specification:'Roboto Medium';stroke-width:1.61158717"
         y="440.80414"
         x="-706.19128"
         id="tspan850"
         sodipodi:role="line"><tspan
           id="tspan1491"
           style="font-size:73.50013733px;stroke-width:1.61158717"><tspan
   id="tspan1493"
   style="font-size:97.02018738px;stroke-width:1.61158717">S</tspan>WO    OSE</tspan></tspan></text>
    <g
       transform="matrix(0.75,0,0,0.75,-609.02854,252.28433)"
       id="g1250">
      <g
         style="display:none"
         id="Layer_1"
         display="none">
	<g
   style="display:inline"
   display="inline"
   id="g1064">
		<defs
   id="defs1037">
			<polygon
   id="polygon1174"
   points="150.289,285.531 206.818,266.918 182,246.926 206.818,181.434 212.333,95.261 164.076,24.944 106.858,27.012 72.389,51.14 56.532,85.61 31.714,124.905 42.055,134.556 99.274,106.98 141.327,100.087 150.289,145.586 106.168,239.343 79.972,295.183 80.661,350.333 " />

		</defs>

		<clipPath
   id="SVGID_2_">
			<use
   height="100%"
   width="100%"
   y="0"
   x="0"
   style="overflow:visible"
   xlink:href="#SVGID_1_"
   overflow="visible"
   id="use1039" />

		</clipPath>

		<g
   clip-path="url(#SVGID_2_)"
   id="g1062">
			<g
   id="g1060">
				<defs
   id="defs1043">
					<rect
   id="rect1179"
   x="-98.209"
   y="-185.714"
   width="615.48499"
   height="869.62" />

				</defs>

				<clipPath
   id="SVGID_4_">
					<use
   height="100%"
   width="100%"
   y="0"
   x="0"
   style="overflow:visible"
   xlink:href="#SVGID_3_"
   overflow="visible"
   id="use1045" />

				</clipPath>

				<g
   clip-path="url(#SVGID_4_)"
   id="g1058">
					<defs
   id="defs1049">
						<rect
   id="rect1184"
   x="-98.209"
   y="-185.714"
   width="615.48499"
   height="869.62" />

					</defs>

					<clipPath
   id="SVGID_6_">
						<use
   height="100%"
   width="100%"
   y="0"
   x="0"
   style="overflow:visible"
   xlink:href="#SVGID_5_"
   overflow="visible"
   id="use1051" />

					</clipPath>

					<g
   clip-path="url(#SVGID_6_)"
   id="g1056">
						
							<image
   sodipodi:absref="C:\Users\brunk\Desktop\Swoose\DF52C691.jpg"
   xlink:href="DF52C691.jpg"
   id="image1054"
   transform="matrix(0.2482,0,0,0.2482,-98.2095,-185.7139)"
   height="3504"
   width="2480"
   overflow="visible"
   style="overflow:visible">
						</image>

					</g>

				</g>

			</g>

		</g>

	</g>

	<g
   style="display:inline"
   display="inline"
   id="g1094">
		<defs
   id="defs1067">
			<path
   inkscape:connector-curvature="0"
   id="path1195"
   d="m 71,341 128,-97 197,69 61,92 35,115 -216,-20 c 0,0 8,141 8,138 0,-3 0,-3 0,-3 L 143,592 127,475 65,390 Z" />

		</defs>

		<clipPath
   id="SVGID_8_">
			<use
   height="100%"
   width="100%"
   y="0"
   x="0"
   style="overflow:visible"
   xlink:href="#SVGID_7_"
   overflow="visible"
   id="use1069" />

		</clipPath>

		<g
   clip-path="url(#SVGID_8_)"
   id="g1092">
			<g
   id="g1090">
				<defs
   id="defs1073">
					<rect
   id="rect1200"
   x="-88"
   y="-168.069"
   width="595.20001"
   height="840.96002" />

				</defs>

				<clipPath
   id="SVGID_10_">
					<use
   height="100%"
   width="100%"
   y="0"
   x="0"
   style="overflow:visible"
   xlink:href="#SVGID_9_"
   overflow="visible"
   id="use1075" />

				</clipPath>

				<g
   clip-path="url(#SVGID_10_)"
   id="g1088">
					<defs
   id="defs1079">
						<rect
   id="rect1205"
   x="-88"
   y="-168.069"
   width="595.20001"
   height="840.96002" />

					</defs>

					<clipPath
   id="SVGID_12_">
						<use
   height="100%"
   width="100%"
   y="0"
   x="0"
   style="overflow:visible"
   xlink:href="#SVGID_11_"
   overflow="visible"
   id="use1081" />

					</clipPath>

					<g
   transform="translate(7.629395e-6,1.525879e-5)"
   clip-path="url(#SVGID_12_)"
   id="g1086">
						
							<image
   sodipodi:absref="C:\Users\brunk\Desktop\Swoose\DF52C693.jpg"
   xlink:href="DF52C693.jpg"
   id="image1084"
   transform="matrix(0.24,0,0,0.24,-88,-168.0693)"
   height="3504"
   width="2480"
   overflow="visible"
   style="overflow:visible">
						</image>

					</g>

				</g>

			</g>

		</g>

	</g>

	
		<image
   sodipodi:absref="C:\Users\brunk\Desktop\Swoose\DF52C696.jpg"
   xlink:href="DF52C696.jpg"
   id="image1096"
   transform="matrix(1.099,0,0,1.099,54.6665,21.2231)"
   height="129"
   width="148"
   overflow="visible"
   display="inline"
   style="display:inline;overflow:visible;opacity:0.5">
	</image>

</g>
      <g
         style="display:none"
         id="Layer_2"
         display="none">
	<g
   style="display:inline"
   display="inline"
   id="g1121">
		<path
   style="fill:#d76639;stroke:#181716;stroke-miterlimit:10"
   inkscape:connector-curvature="0"
   stroke-miterlimit="10"
   d="m 226.667,452.667 c 1.678,-1.678 22.333,2.999 25.667,6.333 3.334,3.334 4.666,20.334 4.666,26.667 0,5 4.838,9.912 5.667,14.165 1.333,6.835 -1.667,10.501 -1.667,14.501 0,4 0.459,28.675 4,34.667 2.166,3.667 7.48,10.591 6.51,15.156 -3.51,16.511 -4.177,27.511 -4.177,33.511 -8.667,-2 -28.666,-4.334 -33.666,6.666 -4.86,-11 -16.667,-17 -27.333,-9.333 -1,-9.333 -10.333,-19.667 -19.667,-18 -8.104,1.447 52,-23.334 55.667,-29.667 C 246.001,541 244,521 244,517 c 0,-4 -4.667,-9 -5.667,-15 -1,-6 3.334,-10.333 2.334,-17 -1.632,-10.878 -14,-32.333 -14,-32.333 z"
   id="path1099" />

		<path
   style="fill:#d76639;stroke:#181716;stroke-miterlimit:10"
   inkscape:connector-curvature="0"
   stroke-miterlimit="10"
   d="m 206.61,474.479 c 4.719,0.55 8.502,0.854 10.725,0.854 1.444,0 3.982,-0.036 7.33,-0.097 0,2.569 0.835,4.264 0.835,4.264 0,3.333 2.5,4.5 3.271,8.5 1.151,5.97 -2.521,8.75 -1.771,12.667 0.376,1.964 2,13 3,18.664 1,5.664 18.25,22.585 9.25,18.919 -9,-3.666 -11,0.5 -21.5,7.75 -4.849,3.349 -46.417,20 -42.75,18 13.25,-19.25 5.5,-24.75 -9.667,-26.333 19.917,-10.167 11.667,-12.917 6,-16 10.167,-1.167 38.167,0.833 41,-2 2.833,-2.833 0,-13 0,-18 0,-5 -4.667,-5.334 -5.723,-11 -1.056,-5.666 0.89,-7.25 0.89,-9.917 0,-2.667 -0.89,-4.083 -0.89,-6.271 z"
   id="path1101" />

		<path
   style="fill:#c88e71;stroke:#181716;stroke-miterlimit:10"
   inkscape:connector-curvature="0"
   stroke-miterlimit="10"
   d="m 194,265 c 12,4.334 38.333,7.334 58.333,11.334 18.702,3.74 39.421,9.145 52,16.332 23.334,13.334 53.334,42.333 63.334,58.667 10,16.334 32.642,52.01 37,64 0.257,0.707 0.635,1.414 1.121,2.13 -14.455,8.205 -63.788,0.205 -95.121,-7.795 -31.333,-8 -61.334,-32.668 -86,-52.668 -24.666,-20 -43,-57.667 -45,-65 -2,-7.333 -1.929,-14.646 1.333,-20 3.333,-5.47 7,-8 17.993,-5.47 z"
   id="path1103" />

		<path
   style="fill:#f2cfb1;stroke:#181716;stroke-miterlimit:10"
   inkscape:connector-curvature="0"
   stroke-miterlimit="10"
   d="m 186.487,266.53 c -50.75,20.47 -89.737,46.22 -99.964,85.403 5.367,22.116 15.463,54.567 21.811,66.733 8,15.334 27.272,35.641 38.333,42 13.333,7.666 60,14.666 70.667,14.666 2.969,0 10.559,-0.154 20.307,-0.35 l 0.003,0.002 c -4.183,-10.531 -10.977,-22.318 -10.977,-22.318 1.677,-1.678 22.333,3 25.667,6.334 2.013,2.012 3.296,9.006 3.996,15.625 22.981,-0.406 48.897,-0.705 57.671,0.041 15.667,1.334 53.667,14 69,17.334 -42.332,-16.668 -73.333,-63 -81.095,-85 v 0 c -28.143,-9.911 -54.882,-31.871 -77.239,-49.999 -24.667,-20 -43,-57.667 -45,-65 -2,-7.333 -1.929,-14.646 1.333,-20 1.532,-2.514 3.135,-4.407 5.486,-5.473 z"
   id="path1105" />

		<path
   style="fill:#fffdff;stroke:#181716;stroke-miterlimit:10"
   inkscape:connector-curvature="0"
   stroke-miterlimit="10"
   d="m 186.486,266.528 c 2.765,-1.254 6.566,-1.364 12.507,0.003 L 194,265 c -12,-4.334 -17.333,-18.667 -15,-27.667 2.333,-9 16,-48 20,-59.667 4,-11.667 8,-40.333 6.667,-57 C 204.334,103.999 201.75,85 191.5,67.75 181.25,50.5 166.021,33.149 155.167,30.167 c -4.811,-1.322 -12.167,-2 -26.333,-0.5 -14.166,1.5 -24.397,9.923 -26.334,18.833 -1.25,5.75 -1.31,7.956 -0.543,11.564 2.055,-0.45 0.99,6.463 4.293,6.186 4.772,-0.4 3.77,-2.994 9.5,-5 6.172,-2.161 18.958,-3.753 20.322,-4.456 -0.049,-0.257 -0.076,-0.522 -0.076,-0.794 0,-2.309 1.871,-4.181 4.181,-4.181 2.31,0 4.181,1.872 4.181,4.181 0,2.309 -1.871,4.181 -4.181,4.181 -0.577,0 -1.18,-0.141 -1.68,-0.353 -0.274,0.364 -0.639,0.838 -1.001,1.511 -2.334,4.333 -1.5,16.327 -1.5,19.327 0,3 0.254,19.583 1.504,20.833 4.685,-3.107 6.632,-5.626 9.875,-2.625 4.938,4.569 9.021,21.015 9.625,28.458 1,12.333 -6.667,42.667 -14.333,61.667 -7.666,19 -35.667,57.667 -47.667,82.668 -12,25 -14.664,52.675 -9.829,74.468 0.406,1.83 0.859,3.771 1.351,5.799 C 96.75,312.75 135.737,287 186.486,266.53 Z"
   id="path1107" />

		<path
   style="fill:#523e3f;stroke:#181716;stroke-miterlimit:10"
   inkscape:connector-curvature="0"
   stroke-miterlimit="10"
   d="m 301.905,407 v 0 c 7.762,22 38.763,68.332 81.095,85 15.333,3.332 89,15.666 88,11.332 -2.455,-10.639 -20.667,-38.666 -34.333,-56 -12.348,-15.662 -26.331,-23.159 -30.88,-29.87 -14.454,8.206 -63.787,0.206 -95.12,-7.794 -2.934,-0.749 -5.854,-1.645 -8.762,-2.668 z"
   id="path1109" />

		<path
   style="stroke:#181716;stroke-miterlimit:10"
   inkscape:connector-curvature="0"
   stroke-miterlimit="10"
   d="m 137.5,101.5 c -1.25,-1.25 -1.504,-17.833 -1.504,-20.833 0,-3 -0.834,-14.994 1.5,-19.327 0.361,-0.673 0.727,-1.147 1,-1.511 0.5,0.212 1.104,0.353 1.68,0.353 2.311,0 4.182,-1.872 4.182,-4.181 0,-2.309 -1.871,-4.181 -4.182,-4.181 -2.309,0 -4.18,1.872 -4.18,4.181 0,0.271 0.027,0.537 0.076,0.794 -1.364,0.703 -14.149,2.295 -20.322,4.456 -5.73,2.006 -4.728,4.6 -9.5,5 -3.304,0.277 -2.239,-6.635 -4.294,-6.186 C 100.31,68.544 97.5,81.25 97.5,85.25 c 0,4 3.5,6 7.25,6 3.75,0 10.75,-11.25 10.75,-14 0,-2.75 1.25,-3.729 4.5,-1.74 3.25,1.989 13,7.24 13.75,12.74 0.75,5.5 -6.75,22.806 -8.25,26.306 -1.5,3.5 8.25,-9.306 12,-13.056 z"
   id="path1111" />

		<path
   style="fill:#d76639;stroke:#181716;stroke-miterlimit:10"
   inkscape:connector-curvature="0"
   stroke-miterlimit="10"
   d="m 98.105,87.875 c 1.16,2.25 3.832,3.375 6.645,3.375 3.75,0 10.75,-11.25 10.75,-14 0,-2.75 1.25,-3.729 4.5,-1.74 3.25,1.989 13,7.24 13.75,12.74 0.75,5.5 -6.75,22.806 -8.25,26.306 -2.985,6.618 -13.5,23.194 -17.75,27.444 -4.25,4.25 -10.75,3 -12,1.75 -2.375,-2.375 -0.25,-9.75 -3,-10.5 -2.75,-0.75 -6.875,8.875 -8,10 -1.125,1.125 -2.125,2.125 -4.25,0 -2.125,-2.125 -2.973,-6.027 1,-10 4.625,-4.625 12.75,-21.5 14.75,-28 2,-6.5 1.015,-7.551 1.889,-17.314 z"
   id="path1113" />

		<path
   style="stroke:#181716;stroke-miterlimit:10"
   inkscape:connector-curvature="0"
   stroke-miterlimit="10"
   d="m 81.936,144.366 c 1.23,0.563 2.004,-0.211 2.848,-1.055 1.125,-1.125 5.25,-10.75 8,-10 2.75,0.75 0.625,8.125 3,10.5 1.156,1.155 6.8,2.311 11.003,-0.881 l -0.047,-0.054 C 105,148.942 98.667,153.013 92.333,153 c -4.346,-0.009 -8.167,-4 -10.542,-8.754 z"
   id="path1115" />

		<path
   style="stroke:#181716;stroke-miterlimit:10"
   inkscape:connector-curvature="0"
   stroke-miterlimit="10"
   d="m 114.833,86.833 c -1.752,-0.54 -4.834,5.333 -5.667,10.5 -0.833,5.167 -1.771,11.893 0,12.367 2.986,0.799 5.833,-8.7 6.333,-11.867 0.5,-3.167 1.501,-10.333 -0.666,-11 z"
   id="path1117" />

		<path
   style="stroke:#181716;stroke-miterlimit:10"
   inkscape:connector-curvature="0"
   stroke-miterlimit="10"
   d="m 99.699,91.135 c 1.132,0 0.968,4.198 0.635,8.031 -0.333,3.833 -2,8.669 -2.833,8.669 -0.833,0 1.167,-5.002 1.583,-7.669 0.287,-1.84 0.166,-9.031 0.615,-9.031 z"
   id="path1119" />

	</g>

</g>
      <g
         id="Layer_2_copy">
	<path
   style="fill:#d76639;stroke:#181716;stroke-miterlimit:10"
   inkscape:connector-curvature="0"
   stroke-miterlimit="10"
   d="m 226.667,452.667 c 1.678,-1.678 22.333,2.999 25.667,6.333 3.334,3.334 4.666,20.334 4.666,26.667 0,5 4.838,9.912 5.667,14.165 1.333,6.835 -1.667,10.501 -1.667,14.501 0,4 0.459,28.675 4,34.667 2.166,3.667 7.48,10.591 6.51,15.156 -3.51,16.511 -4.177,27.511 -4.177,33.511 -8.667,-2 -28.666,-4.334 -33.666,6.666 -4.86,-11 -16.667,-17 -27.333,-9.333 -1,-9.333 -10.333,-19.667 -19.667,-18 -8.104,1.447 52,-23.334 55.667,-29.667 C 246.001,541 244,521 244,517 c 0,-4 -4.667,-9 -5.667,-15 -1,-6 3.334,-10.333 2.334,-17 -1.632,-10.878 -14,-32.333 -14,-32.333 z"
   id="path1124" />

	<path
   style="fill:#d76639;stroke:#181716;stroke-miterlimit:10"
   inkscape:connector-curvature="0"
   stroke-miterlimit="10"
   d="m 206.61,474.479 c 4.719,0.55 8.502,0.854 10.725,0.854 1.444,0 3.982,-0.036 7.33,-0.097 0,2.569 0.835,4.264 0.835,4.264 0,3.333 2.5,4.5 3.271,8.5 1.151,5.97 -2.521,8.75 -1.771,12.667 0.376,1.964 2,13 3,18.664 1,5.664 18.25,22.585 9.25,18.919 -9,-3.666 -11,0.5 -21.5,7.75 -4.849,3.349 -46.417,20 -42.75,18 13.25,-19.25 5.5,-24.75 -9.667,-26.333 19.917,-10.167 11.667,-12.917 6,-16 10.167,-1.167 38.167,0.833 41,-2 2.833,-2.833 0,-13 0,-18 0,-5 -4.667,-5.334 -5.723,-11 -1.056,-5.666 0.89,-7.25 0.89,-9.917 0,-2.667 -0.89,-4.083 -0.89,-6.271 z"
   id="path1126" />

	<path
   style="fill:#f2cfb1;stroke:#181716;stroke-miterlimit:10"
   inkscape:connector-curvature="0"
   stroke-miterlimit="10"
   d="M 142.732,287.6"
   id="path1128" />

	<path
   style="stroke:#181716;stroke-miterlimit:10"
   inkscape:connector-curvature="0"
   stroke-miterlimit="10"
   d="m 137.5,101.5 c -1.25,-1.25 -1.504,-17.833 -1.504,-20.833 0,-3 -0.834,-14.994 1.5,-19.327 0.361,-0.673 0.727,-1.147 1,-1.511 0.5,0.212 1.104,0.353 1.68,0.353 2.311,0 4.182,-1.872 4.182,-4.181 0,-2.309 -1.871,-4.181 -4.182,-4.181 -2.309,0 -4.18,1.872 -4.18,4.181 0,0.271 0.027,0.537 0.076,0.794 -1.364,0.703 -14.149,2.295 -20.322,4.456 -5.73,2.006 -4.728,4.6 -9.5,5 -3.304,0.277 -2.239,-6.635 -4.294,-6.186 C 100.31,68.544 97.5,81.25 97.5,85.25 c 0,4 3.5,6 7.25,6 3.75,0 10.75,-11.25 10.75,-14 0,-2.75 1.25,-3.729 4.5,-1.74 3.25,1.989 13,7.24 13.75,12.74 0.75,5.5 -6.75,22.806 -8.25,26.306 -1.5,3.5 8.25,-9.306 12,-13.056 z"
   id="path1130" />

	<path
   style="fill:#d76639;stroke:#181716;stroke-miterlimit:10"
   inkscape:connector-curvature="0"
   stroke-miterlimit="10"
   d="m 98.105,87.875 c 1.16,2.25 3.832,3.375 6.645,3.375 3.75,0 10.75,-11.25 10.75,-14 0,-2.75 1.25,-3.729 4.5,-1.74 3.25,1.989 13,7.24 13.75,12.74 0.75,5.5 -6.75,22.806 -8.25,26.306 -2.985,6.618 -13.5,23.194 -17.75,27.444 -4.25,4.25 -10.75,3 -12,1.75 -2.375,-2.375 -0.25,-9.75 -3,-10.5 -2.75,-0.75 -6.875,8.875 -8,10 -1.125,1.125 -2.125,2.125 -4.25,0 -2.125,-2.125 -2.973,-6.027 1,-10 4.625,-4.625 12.75,-21.5 14.75,-28 2,-6.5 1.015,-7.551 1.889,-17.314 z"
   id="path1132" />

	<path
   style="stroke:#181716;stroke-miterlimit:10"
   inkscape:connector-curvature="0"
   stroke-miterlimit="10"
   d="m 81.936,144.366 c 1.23,0.563 2.004,-0.211 2.848,-1.055 1.125,-1.125 5.25,-10.75 8,-10 2.75,0.75 0.625,8.125 3,10.5 1.156,1.155 6.8,2.311 11.003,-0.881 l -0.047,-0.054 C 105,148.942 98.667,153.013 92.333,153 c -4.346,-0.009 -8.167,-4 -10.542,-8.754 z"
   id="path1134" />

	<path
   style="stroke:#181716;stroke-miterlimit:10"
   inkscape:connector-curvature="0"
   stroke-miterlimit="10"
   d="m 114.833,86.833 c -1.752,-0.54 -4.834,5.333 -5.667,10.5 -0.833,5.167 -1.771,11.893 0,12.367 2.986,0.799 5.833,-8.7 6.333,-11.867 0.5,-3.167 1.501,-10.333 -0.666,-11 z"
   id="path1136" />

	<path
   style="stroke:#181716;stroke-miterlimit:10"
   inkscape:connector-curvature="0"
   stroke-miterlimit="10"
   d="m 99.699,91.135 c 1.132,0 0.968,4.198 0.635,8.031 -0.333,3.833 -2,8.669 -2.833,8.669 -0.833,0 1.167,-5.002 1.583,-7.669 0.287,-1.84 0.166,-9.031 0.615,-9.031 z"
   id="path1138" />

	<path
   style="fill:#5c3f3c;stroke:#181716;stroke-miterlimit:10"
   inkscape:connector-curvature="0"
   stroke-miterlimit="10"
   d="m 448.762,463.941 c -2.362,-3.396 -4.826,-6.672 -7.156,-9.813 v 0 c 0.846,-0.621 1.323,-1.058 2.062,-1.796 4.833,-4.833 -24,-27.334 -32.667,-34 -8.667,-6.666 -12.666,-10.032 -19.041,-16.407 16.432,10.543 41.255,24.688 60.137,34.852 1.832,1.834 30.814,27.493 28.903,30.223 -1.405,2.008 -17.641,-0.413 -32.238,-3.059 z"
   id="path1140" />

	<path
   style="fill:#b58367;stroke:#181716;stroke-miterlimit:10"
   inkscape:connector-curvature="0"
   stroke-miterlimit="10"
   d="m 141.667,291.333 c -0.917,6 6.667,26.666 19,28 12.333,1.334 36.333,-9.666 48.666,4.667 12.333,14.333 73.333,65.999 140.333,54.333 0,0 -28.667,-33.333 -31.667,-36.333 27,20.667 42.333,37 62.333,52 21.851,16.388 97.386,57.564 98.334,55.667 C 480,447 444.616,413.903 407.333,385 388.811,370.641 344.5,319.5 311.232,299.667 279.79,280.922 213.417,257.435 175.652,268.09 c -21,5.924 -32.421,13.014 -33.985,23.243 z"
   id="path1142" />

	<path
   style="fill:#402a2c;stroke:#181716;stroke-miterlimit:10"
   inkscape:connector-curvature="0"
   stroke-miterlimit="10"
   d="M 442.263,501.824 C 437.398,495.364 433.185,489.894 432,488 c -3.333,-5.333 -9.641,-23.534 -10.32,-27.933 7.719,-0.279 14.756,-1.917 19.926,-5.938 v 0 c 12.725,17.153 27.234,39.845 29.395,49.203 0.423,1.833 -12.509,0.685 -28.734,-1.503"
   id="path1144" />

	<path
   style="fill:#f2cfb1;stroke:#181716;stroke-miterlimit:10"
   inkscape:connector-curvature="0"
   stroke-miterlimit="10"
   d="m 292.344,399.315 c 5.943,5.943 27.934,37.676 36.156,52.999 7.132,13.29 19.167,15.422 31.5,20.353 4.975,1.988 24.434,10.412 44.416,23.796 v 0 C 382.502,495.001 329.667,476 314,474.666 c -8.773,-0.746 -34.689,-0.447 -57.671,-0.041 -0.7,-6.619 -1.983,-13.613 -3.996,-15.625 -3.334,-3.334 -23.989,-8.012 -25.667,-6.334 0,0 6.794,11.787 10.977,22.318 l -0.003,-0.002 c -9.748,0.195 -17.338,0.35 -20.307,0.35 -10.667,0 -57.333,-7 -70.667,-14.666 -11.061,-6.359 -30.333,-26.666 -38.333,-42 -6.348,-12.166 -16.444,-44.617 -21.811,-66.733 7.021,-26.894 37.254,-57.626 65.875,-74.499 v 0 c -6.311,3.949 -9.902,8.484 -10.731,13.9 -0.757,4.95 4.271,19.874 12.979,25.698 v 0 c -2.315,4.973 -7.979,12.969 -5.313,15.636 2.666,2.667 17,0 22.667,3.333 5.666,3.333 8.666,7.333 15,8.333 6.334,1 19.783,0.66 28.666,6.334 7.684,4.908 30.544,14.83 47.791,25.79 11.735,7.456 19.634,16.633 23.21,20.21 1.474,1.472 3.426,2.323 5.678,2.647 z"
   id="path1146" />

	<path
   style="fill:#ffffff;stroke:#181716;stroke-miterlimit:10"
   inkscape:connector-curvature="0"
   stroke-miterlimit="10"
   d="m 154.646,317.031 c 1.85,1.238 3.859,2.067 6.021,2.302 12.333,1.334 36.333,-9.666 48.666,4.667 10.307,11.979 54.608,50.033 107.993,55.4 10.993,4.733 11.674,6.6 8.007,8.933 -3.667,2.333 -29.833,17.167 -38.666,8.334 -3.576,-3.577 -11.475,-12.754 -23.21,-20.21 -17.247,-10.96 -40.107,-20.882 -47.791,-25.79 -8.883,-5.674 -22.333,-5.334 -28.667,-6.334 -6.334,-1 -9.333,-5 -15,-8.333 -5.667,-3.333 -20,-0.666 -22.667,-3.333 -2.667,-2.667 2.999,-10.663 5.314,-15.636 z"
   id="path1148" />

	<path
   style="fill:#5c3f3c;stroke:#181716;stroke-miterlimit:10"
   inkscape:connector-curvature="0"
   stroke-miterlimit="10"
   d="m 292.344,399.315 c 5.43,0.782 12.788,-1.404 19.086,-3.973 10.856,12.673 62.737,53.157 78.404,59.157 8.748,3.35 20.826,5.966 31.846,5.567 0.68,4.399 6.987,22.6 10.32,27.933 3.333,5.333 30.667,39 29,43.333 -1.667,4.333 -13,8.009 -18.667,0 -9.704,-13.715 -23.938,-25.507 -37.917,-34.87 -19.982,-13.384 -39.441,-21.808 -44.416,-23.796 -12.333,-4.931 -24.368,-7.063 -31.5,-20.353 -8.223,-15.322 -30.213,-47.054 -36.156,-52.998 z"
   id="path1150" />

	<path
   style="fill:#7f330e;stroke:#181716;stroke-miterlimit:10"
   inkscape:connector-curvature="0"
   stroke-miterlimit="10"
   d="M 380.333,394 C 360.333,379 345,362.667 318,342 c 3,3 31.667,36.333 31.667,36.333 -11.005,1.916 -21.849,2.122 -32.341,1.067 10.993,4.733 11.674,6.6 8.007,8.933 -1.535,0.977 -7.406,4.306 -13.903,7.01 10.856,12.673 62.737,53.157 78.404,59.157 15.667,6 42.021,9.646 53.833,-2.167 4.833,-4.833 -24,-27.334 -32.667,-34 -8.667,-6.666 -12.666,-10.032 -19.041,-16.407 z"
   id="path1152" />

	<path
   style="fill:#fefdfe;stroke:#181716;stroke-miterlimit:10"
   inkscape:connector-curvature="0"
   stroke-miterlimit="10"
   d="m 152.397,277.434 c 5.611,-3.51 13.373,-6.556 23.255,-9.344 5.491,-1.549 11.587,-2.376 18.093,-2.602 -12,-4.334 -17.079,-19.154 -14.745,-28.154 2.333,-9 16,-48 20,-59.667 4,-11.667 8,-40.333 6.667,-57 C 204.334,104 201.75,85 191.5,67.75 181.25,50.5 166.021,33.149 155.167,30.167 c -4.811,-1.322 -12.167,-2 -26.333,-0.5 -14.166,1.5 -24.397,9.923 -26.334,18.833 -1.25,5.75 -1.31,7.956 -0.543,11.564 2.055,-0.45 0.99,6.463 4.293,6.186 4.772,-0.4 3.77,-2.994 9.5,-5 6.172,-2.161 18.958,-3.753 20.322,-4.456 -0.049,-0.257 -0.076,-0.522 -0.076,-0.794 0,-2.309 1.871,-4.181 4.181,-4.181 2.31,0 4.181,1.872 4.181,4.181 0,2.309 -1.871,4.181 -4.181,4.181 -0.577,0 -1.18,-0.141 -1.68,-0.353 -0.274,0.364 -0.639,0.838 -1.001,1.511 -2.334,4.333 -1.5,16.327 -1.5,19.327 0,3 0.254,19.583 1.504,20.833 4.685,-3.107 6.632,-5.626 9.875,-2.625 4.938,4.569 9.021,21.015 9.625,28.458 1,12.333 -6.667,42.667 -14.333,61.667 -7.666,19 -35.667,57.667 -47.667,82.668 -12,25 -14.664,52.675 -9.829,74.468 0.406,1.83 0.859,3.771 1.351,5.799 7.02,-26.895 37.254,-57.627 65.875,-74.5 z"
   id="path1154" />

</g>
      <g
         style="display:none"
         id="Layer_4"
         display="none">
	
		<image
   sodipodi:absref="C:\Users\brunk\Desktop\Swoose\DF52C697.jpg"
   xlink:href="DF52C697.jpg"
   id="image1157"
   transform="matrix(0.5241,0.0967,-0.0967,0.5241,54.7935,134.1274)"
   height="609"
   width="932"
   overflow="visible"
   display="inline"
   style="display:inline;overflow:visible;opacity:0.5">
	</image>

</g>
    </g>
  </g>
</svg>
